<?xml version="1.0" encoding="UTF-8"?>
<svg xmlns="http://www.w3.org/2000/svg" viewBox="0 0 1200 630" role="img" aria-labelledby="title desc">
  <title id="title">Flappy Bird Web App</title>
  <desc id="desc">Social sharing card for the Flappy Bird web application</desc>
  <defs>
    <linearGradient id="bg" x1="0%" y1="0%" x2="100%" y2="100%">
      <stop offset="0%" stop-color="#4ad8ff" />
      <stop offset="100%" stop-color="#1a8cff" />
    </linearGradient>
    <filter id="shadow" x="-15%" y="-15%" width="130%" height="130%" color-interpolation-filters="sRGB">
      <feDropShadow dx="0" dy="20" stdDeviation="30" flood-color="#045" flood-opacity="0.35" />
    </filter>
  </defs>
  <rect width="1200" height="630" rx="42" fill="url(#bg)" />
  <g transform="translate(220 160)" fill="#fff" filter="url(#shadow)">
    <path d="M178 70c48-8 94 14 102 62 6 33-8 66-34 87l58 58-80 0-38-38c-34 6-69-4-92-30-27-31-24-78 7-105 21-18 49-26 77-22z" fill="#fff"/>
    <path d="M120 140c0-22 18-40 40-40s40 18 40 40-18 40-40 40-40-18-40-40z" fill="#0b3d91"/>
    <circle cx="160" cy="140" r="18" fill="#fff"/>
    <circle cx="166" cy="136" r="8" fill="#0b3d91"/>
    <path d="M232 134l78-14c8-2 16 4 16 12v44c0 8-8 14-16 12l-78-14z" fill="#ffcf3f"/>
    <path d="M52 152h62c10 0 18 8 18 18v22c0 10-8 18-18 18H40z" fill="#ff8f3f"/>
  </g>
  <g fill="#fff">
    <text x="540" y="170" font-family="'Poppins', 'Segoe UI', sans-serif" font-size="64" font-weight="600" letter-spacing="4">FLAPPY BIRD</text>
    <text x="540" y="240" font-family="'Poppins', 'Segoe UI', sans-serif" font-size="32" font-weight="400" letter-spacing="2">Classic arcade fun in your browser</text>
  </g>
  <g fill="#0b3d91" opacity="0.4">
    <circle cx="1020" cy="120" r="18" />
    <circle cx="1080" cy="220" r="10" />
    <circle cx="980" cy="260" r="14" />
  </g>
</svg>
