<svg xmlns="http://www.w3.org/2000/svg" viewBox="0 0 18 28" shape-rendering="crispEdges">
  <g fill="none" fill-rule="evenodd">
    <g fill="#7A431B">
      <rect width="4" height="1" x="7" y="5"/>
      <rect width="6" height="1" x="6" y="6"/>
      <rect width="8" height="1" x="5" y="7"/>
      <rect width="10" height="1" x="4" y="8"/>
      <rect width="12" height="1" x="3" y="9"/>
      <rect width="12" height="1" x="3" y="10"/>
      <rect width="14" height="1" x="2" y="11"/>
      <rect width="14" height="1" x="2" y="12"/>
      <rect width="14" height="1" x="2" y="13"/>
      <rect width="14" height="1" x="2" y="14"/>
      <rect width="12" height="1" x="3" y="15"/>
      <rect width="12" height="1" x="3" y="16"/>
      <rect width="10" height="1" x="4" y="17"/>
      <rect width="8" height="1" x="5" y="18"/>
      <rect width="6" height="1" x="6" y="19"/>
      <rect width="4" height="1" x="7" y="20"/>
    </g>
    <g fill="#BF7434">
      <rect width="4" height="1" x="7" y="6"/>
      <rect width="6" height="1" x="6" y="7"/>
      <rect width="8" height="1" x="5" y="8"/>
      <rect width="10" height="1" x="4" y="9"/>
      <rect width="10" height="1" x="4" y="10"/>
      <rect width="12" height="1" x="3" y="11"/>
      <rect width="12" height="1" x="3" y="12"/>
      <rect width="12" height="1" x="3" y="13"/>
      <rect width="12" height="1" x="3" y="14"/>
      <rect width="10" height="1" x="4" y="15"/>
      <rect width="10" height="1" x="4" y="16"/>
      <rect width="8" height="1" x="5" y="17"/>
      <rect width="6" height="1" x="6" y="18"/>
      <rect width="4" height="1" x="7" y="19"/>
    </g>
    <g fill="#E9A872">
      <rect width="4" height="1" x="6" y="7"/>
      <rect width="4" height="1" x="5" y="8"/>
      <rect width="3" height="1" x="4" y="9"/>
      <rect width="3" height="1" x="4" y="10"/>
      <rect width="3" height="1" x="3" y="11"/>
      <rect width="2" height="1" x="3" y="12"/>
    </g>
    <g fill="#8F5023">
      <rect width="3" height="1" x="10" y="14"/>
      <rect width="4" height="1" x="10" y="15"/>
      <rect width="4" height="1" x="10" y="16"/>
      <rect width="4" height="1" x="9" y="17"/>
      <rect width="3" height="1" x="9" y="18"/>
    </g>
    <g fill="#FFF0CB">
      <rect width="1" height="1" x="9" y="12"/>
      <rect width="3" height="1" x="8" y="13"/>
      <rect width="2" height="1" x="7" y="14"/>
      <rect width="1" height="1" x="9" y="14"/>
      <rect width="2" height="1" x="10" y="14"/>
      <rect width="7" height="1" x="6" y="15"/>
      <rect width="2" height="1" x="7" y="16"/>
      <rect width="1" height="1" x="9" y="16"/>
      <rect width="2" height="1" x="10" y="16"/>
      <rect width="3" height="1" x="8" y="17"/>
      <rect width="1" height="1" x="9" y="18"/>
    </g>
    <g fill="#FFE7D1">
      <rect width="1" height="1" x="9" y="13"/>
      <rect width="1" height="1" x="10" y="15"/>
    </g>
    <g fill="#4C4F9E">
      <rect width="4" height="1" x="7" y="20"/>
    </g>
    <g fill="#2F3A8A">
      <path d="M4 21H7V27H6V28H5V27H4V21Z"/>
      <path d="M11 21H14V27H13V28H12V27H11V21Z"/>
    </g>
    <g fill="#4652B5">
      <path d="M6 21H7V26H6V21Z"/>
      <path d="M11 21H12V26H11V21Z"/>
    </g>
  </g>
</svg>
